<?xml version="1.0" standalone="no"?>
<!DOCTYPE svg PUBLIC "-//W3C//DTD SVG 1.1//EN" "http://www.w3.org/Graphics/SVG/1.1/DTD/svg11.dtd" >
<!--
2013-9-30: Created.
-->
<svg>
<metadata>
Created by iconfont
</metadata>
<defs>

<font id="iconfont" horiz-adv-x="1024" >
  <font-face
    font-family="iconfont"
    font-weight="500"
    font-stretch="normal"
    units-per-em="1024"
    ascent="896"
    descent="-128"
  />
    <missing-glyph />
    
    <glyph glyph-name="tubiaozhuzhuangtu" unicode="&#58886;" d="M72.0855 711.6685c0 1.3107 0.4997 2.6204 1.4991 3.6209 1.0004 0.9994 2.3101 1.4991 3.6209 1.4991h32.392192c1.3107 0 2.6204-0.4997 3.6209-1.4991 0.9994-1.0004 1.4991-2.3101 1.4991-3.6209v-790.685696h861.740032c1.3097 0 2.6214-0.4997 3.6198-1.5002 1.0004-0.9994 1.5002-2.3101 1.5002-3.6198v-32.392192c0-1.3097-0.4997-2.6214-1.5002-3.6198-0.9994-1.0004-2.3101-1.5002-3.6198-1.5002H72.085504V711.66848zM384.724 701.4285c0 3.9311 1.4991 7.8623 4.4995 10.8605 2.9993 2.9993 6.9304 4.4995 10.8605 4.4995H539.89376c3.9311 0 7.8623-1.4991 10.8605-4.4995 2.9993-2.9993 4.4995-6.9304 4.4995-10.8605v-723.6014080000001H384.723968V701.42848zM171.562 488.2665c0 3.9311 1.4991 7.8623 4.4995 10.8605 2.9993 2.9993 6.9304 4.4995 10.8605 4.4995h139.809792c3.9311 0 7.8623-1.4991 10.8605-4.4995 2.9993-2.9993 4.4995-6.9304 4.4995-10.8605v-510.440448H171.561984V488.26649599999996zM597.887 275.1035c0 3.9311 1.5002 7.8623 4.4995 10.8605s6.9304 4.4995 10.8605 4.4995h139.809792c3.9311 0 7.8623-1.5002 10.8605-4.4995s4.4995-6.9304 4.4995-10.8605v-297.27744H597.886976V275.10348799999997zM811.049 61.9415c0 3.9311 1.5002 7.8623 4.4995 10.8605s6.9304 4.4995 10.8605 4.4995h139.809792c3.9311 0 7.8623-1.5002 10.8605-4.4995s4.4995-6.9304 4.4995-10.8605v-84.11648H811.04896V61.941503999999895z"  horiz-adv-x="1024" />

    
    <glyph glyph-name="xian" unicode="&#58902;" d="M948.058 562.929c0-36.618-19.847-66.262-69.37-66.262h-721.766c-49.586 0-89.785 29.709-89.785 66.262v0c0 36.583 40.199 66.294 89.785 66.294h701.344c49.586 0 89.785-29.676 89.785-66.294v0zM948.058-7.734c0-36.618-19.847-66.262-69.37-66.262h-721.766c-49.586 0-89.785 29.709-89.785 66.262v0c0 36.583 40.199 66.294 89.785 66.294h701.344c49.586 0 89.785-29.676 89.785-66.294v0zM948.058 277.6c0-36.618-19.847-66.262-69.37-66.262h-721.766c-49.586 0-89.785 29.709-89.785 66.262v0c0 36.583 40.199 66.294 89.785 66.294h701.344c49.586 0 89.785-29.676 89.785-66.294v0z"  horiz-adv-x="1024" />

    
    <glyph glyph-name="star" unicode="&#58906;" d="M956.742 464.115c-5.241 16.201-19.179 28.055-36.035 30.497l-254.931 44.791-114.003 229.438c-7.445 15.248-22.993 24.898-40.026 24.898-17.036 0-32.523-9.649-40.146-24.898l-113.945-229.438-254.871-46.339c-16.857-2.443-30.853-14.296-36.036-30.497-5.301-16.142-0.893-33.951 11.318-45.804l184.408-170.41-48.186-247.663c-2.859-16.737 3.931-33.834 17.81-43.721 13.245-13.245 40.563-6.908 47.054-3.514l232.595 113.646 231.106-113.646c6.491-3.394 32.167-11.373 47.053 3.514 13.76 9.887 20.787 26.983 17.87 43.721l-46.698 247.663 184.467 172.019c12.152 11.793 16.499 29.602 11.197 45.744z"  horiz-adv-x="1024" />

    
    <glyph glyph-name="add" unicode="&#58883;" d="M984.615385 243.364923 568.635077 243.364923 568.635077-172.615385c0-21.740308-17.644308-39.384615-39.384615-39.384615L494.749538-212c-21.740308 0-39.384615 17.644308-39.384615 39.384615L455.364923 243.364923 39.384615 243.364923c-21.740308 0-39.384615 17.644308-39.384615 39.384615L0 317.250462c0 21.740308 17.644308 39.384615 39.384615 39.384615l415.980308 0L455.364923 772.615385c0 21.740308 17.644308 39.384615 39.384615 39.384615l34.500923 0c21.740308 0 39.384615-17.644308 39.384615-39.384615l0-415.980308L984.615385 356.635077c21.740308 0 39.384615-17.644308 39.384615-39.384615l0-34.500923C1024 261.009231 1006.355692 243.364923 984.615385 243.364923z"  horiz-adv-x="1024" />

    
    <glyph glyph-name="table" unicode="&#59311;" d="M329.124352 109.699072l0 109.707264q0 7.999488-5.142528 13.142016t-13.142016 5.142528l-182.84544 0q-7.999488 0-13.142016-5.142528t-5.142528-13.142016l0-109.707264q0-7.999488 5.142528-13.142016t13.142016-5.142528l182.84544 0q7.999488 0 13.142016 5.142528t5.142528 13.142016zm0 219.414528l0 109.707264q0 7.999488-5.142528 13.142016t-13.142016 5.142528l-182.84544 0q-7.999488 0-13.142016-5.142528t-5.142528-13.142016l0-109.707264q0-7.999488 5.142528-13.142016t13.142016-5.142528l182.84544 0q7.999488 0 13.142016 5.142528t5.142528 13.142016zm292.552704-219.414528l0 109.707264q0 7.999488-5.142528 13.142016t-13.142016 5.142528l-182.84544 0q-7.999488 0-13.142016-5.142528t-5.142528-13.142016l0-109.707264q0-7.999488 5.142528-13.142016t13.142016-5.142528l182.84544 0q7.999488 0 13.142016 5.142528t5.142528 13.142016zm-292.552704 438.829056l0 109.707264q0 7.999488-5.142528 13.142016t-13.142016 5.142528l-182.84544 0q-7.999488 0-13.142016-5.142528t-5.142528-13.142016l0-109.707264q0-7.999488 5.142528-13.142016t13.142016-5.142528l182.84544 0q7.999488 0 13.142016 5.142528t5.142528 13.142016zm292.552704-219.414528l0 109.707264q0 7.999488-5.142528 13.142016t-13.142016 5.142528l-182.84544 0q-7.999488 0-13.142016-5.142528t-5.142528-13.142016l0-109.707264q0-7.999488 5.142528-13.142016t13.142016-5.142528l182.84544 0q7.999488 0 13.142016 5.142528t5.142528 13.142016zm292.552704-219.414528l0 109.707264q0 7.999488-5.142528 13.142016t-13.142016 5.142528l-182.84544 0q-7.999488 0-13.142016-5.142528t-5.142528-13.142016l0-109.707264q0-7.999488 5.142528-13.142016t13.142016-5.142528l182.84544 0q7.999488 0 13.142016 5.142528t5.142528 13.142016zm-292.552704 438.829056l0 109.707264q0 7.999488-5.142528 13.142016t-13.142016 5.142528l-182.84544 0q-7.999488 0-13.142016-5.142528t-5.142528-13.142016l0-109.707264q0-7.999488 5.142528-13.142016t13.142016-5.142528l182.84544 0q7.999488 0 13.142016 5.142528t5.142528 13.142016zm292.552704-219.414528l0 109.707264q0 7.999488-5.142528 13.142016t-13.142016 5.142528l-182.84544 0q-7.999488 0-13.142016-5.142528t-5.142528-13.142016l0-109.707264q0-7.999488 5.142528-13.142016t13.142016-5.142528l182.84544 0q7.999488 0 13.142016 5.142528t5.142528 13.142016zm0 219.414528l0 109.707264q0 7.999488-5.142528 13.142016t-13.142016 5.142528l-182.84544 0q-7.999488 0-13.142016-5.142528t-5.142528-13.142016l0-109.707264q0-7.999488 5.142528-13.142016t13.142016-5.142528l182.84544 0q7.999488 0 13.142016 5.142528t5.142528 13.142016zm73.138176 182.84544l0-621.674496q0-37.711872-26.855424-64.567296t-64.567296-26.855424l-767.950848 0q-37.711872 0-64.567296 26.855424t-26.855424 64.567296l0 621.674496q0 37.711872 26.855424 64.567296t64.567296 26.855424l767.950848 0q37.711872 0 64.567296-26.855424t26.855424-64.567296z"  horiz-adv-x="1024" />

    
    <glyph glyph-name="sort" unicode="&#58881;" d="M938.666667 640.149333 85.333333 640.149333c-23.552 0-42.666667 19.114667-42.666667 42.666667s19.114667 42.666667 42.666667 42.666667l853.333333 0c23.552 0 42.666667-19.114667 42.666667-42.666667S962.24 640.149333 938.666667 640.149333zM938.666667 341.333333 85.333333 341.333333c-23.552 0-42.666667 19.114667-42.666667 42.666667s19.114667 42.666667 42.666667 42.666667l853.333333 0c23.552 0 42.666667-19.114667 42.666667-42.666667S962.24 341.333333 938.666667 341.333333zM938.666667 42.816 85.333333 42.816c-23.552 0-42.666667 19.114667-42.666667 42.666667s19.114667 42.666667 42.666667 42.666667l853.333333 0c23.552 0 42.666667-19.114667 42.666667-42.666667S962.24 42.816 938.666667 42.816z"  horiz-adv-x="1024" />

    
    <glyph glyph-name="dingdian01" unicode="&#59061;" d="M511.2832 848.0768c-181.248 0-325.3248-144.0768-325.3248-325.3248 0-241.664 325.3248-604.2624 325.3248-604.2624s325.3248 362.496 325.3248 604.2624C836.7104 704 692.6336 848.0768 511.2832 848.0768z"  horiz-adv-x="1024" />

    
    <glyph glyph-name="zheng-triangle" unicode="&#58961;" d="M71.675 2.67l440.325 762.683 440.325-762.683z"  horiz-adv-x="1024" />

    
    <glyph glyph-name="dingwei" unicode="&#58894;" d="M512 673.413564c-74.807835 0-135.52144-59.810129-135.52144-133.594024s60.683489-133.594024 135.52144-133.594024 135.551556 59.780013 135.551556 133.594024C647.551556 613.603435 586.777719 673.413564 512 673.413564M512 896C312.422093 896 150.609494 746.8963 150.609494 562.918417c-0.030116-184.008 361.390506-690.918417 361.390506-690.918417s361.390506 506.910417 361.390506 690.918417C873.360391 746.836068 711.577907 896 512 896M510.945944 320.997588c-119.770837 0-228.940886 120.885124-228.940886 234.000353 0 113.145344 110.224104 212.979472 229.964826 212.979472S740.880654 667.028998 740.880654 553.91377C740.940886 440.888889 630.746897 320.997588 510.945944 320.997588"  horiz-adv-x="1024" />

    
    <glyph glyph-name="weibiaoti130" unicode="&#59034;" d="M0 832l0-896 1024 0L1024 832 0 832zM640 768l0-192L384 576 384 768 640 768zM384 512l256 0 0-192L384 320 384 512zM320 320 64 320 64 512l256 0L320 320zM320 768l0-192L64 576 64 768 320 768zM64 0l0 256 256 0 0-256L64 0zM384 0l0 256 256 0 0-256L384 0zM960 0l-256 0 0 256 256 0L960 0zM960 320l-256 0L704 512l256 0L960 320zM960 576l-256 0L704 768l256 0L960 576z"  horiz-adv-x="1024" />

    
    <glyph glyph-name="more" unicode="&#58891;" d="M773.128299 88.65234199999998M440.920128 704.136228c0 43.865044 35.69906 79.56001 79.56001 79.56001 43.866067 0 79.56001-35.69599 79.56001-79.56001 0-43.861974-35.694967-79.561034-79.56001-79.561034C476.618165 624.576217 440.920128 660.274254 440.920128 704.136228L440.920128 704.136228 440.920128 704.136228zM440.920128 393.208732c0 43.86095 35.69906 79.56001 79.56001 79.56001 43.866067 0 79.56001-35.69906 79.56001-79.56001 0-43.866067-35.694967-79.561034-79.56001-79.561034C476.618165 313.647699 440.920128 349.342666 440.920128 393.208732L440.920128 393.208732 440.920128 393.208732zM440.920128 82.27919099999997c0 43.865044 35.69906 79.56001 79.56001 79.56001 43.866067 0 79.56001-35.69599 79.56001-79.56001 0-43.86095-35.694967-79.555917-79.56001-79.555917C476.618165 2.7232739999999467 440.920128 38.41823999999997 440.920128 82.27919099999997L440.920128 82.27919099999997 440.920128 82.27919099999997z"  horiz-adv-x="1024" />

    
    <glyph glyph-name="sort1" unicode="&#59175;" d="M128 128h256v85.333333H128v-85.333333zM128 640v-85.333333h768V640H128z m0-298.666667h512v85.333334H128v-85.333334z"  horiz-adv-x="1024" />

    
    <glyph glyph-name="Return" unicode="&#59262;" d="M713.301333 392.704H363.050667l152.192 149.674667a19.84 19.84 0 0 1 0 28.416 20.650667 20.650667 0 0 1-28.885334 0l-185.472-182.357334c-0.768-0.554667-1.664-0.853333-2.389333-1.536-3.84-3.754667-5.589333-8.661333-5.717333-15.573333 0.128-4.906667 1.877333-9.813333 5.717333-13.610667 0.725333-0.682667 1.621333-0.938667 2.389333-1.536l185.472-182.314666a20.650667 20.650667 0 0 1 28.885334 0 19.84 19.84 0 0 1 0 28.416l-152.192 149.632h350.250666c11.477333 0 20.778667 9.173333 20.778667 20.437333s-9.344 20.352-20.778667 20.352zM512 810.709333c-235.648 0-426.709333-191.061333-426.709333-426.666666C85.290667 148.394667 276.352-42.666667 512-42.666667c235.605333 0 426.666667 191.061333 426.666667 426.709334 0 235.605333-191.061333 426.666667-426.666667 426.666666z m0-812.16a385.493333 385.493333 0 1 0 0 770.986667 385.493333 385.493333 0 0 0 0-770.986667z"  horiz-adv-x="1024" />

    
    <glyph glyph-name="xianlu" unicode="&#58905;" d="M1994.064751 881.810432c-77.290649 35.655915-169.162854 1.784946-204.817769-75.510703-18.877426-40.928755-17.775459-85.751391-1.543953-124.391216L1218.438346 162.012328c-2.610921 1.429957-4.872852 3.239901-7.608769 4.513863-30.319078 13.973575-62.78109 16.953484-93.313161 11.108662L947.225596 469.721967c8.799732 10.385684 16.787489 21.582343 22.762308 34.53095 35.654915 77.295649 1.783946 169.173854-75.511703 204.823769-77.289649 35.653915-169.161854 1.777946-204.81177-75.512703-16.079511-34.85394-17.369472-72.494795-7.571769-106.786751l-439.386634-313.368468c-7.447773 5.199842-15.201538 10.052694-23.704279 13.979575-77.295649 35.643916-169.167854 1.777946-204.81777-75.511703-35.653915-77.295649-1.777946-169.162854 75.511703-204.817769 77.285649-35.654915 169.162854-1.777946 204.81777 75.511703 16.074511 34.85394 17.364472 72.500795 7.566769 106.792751l439.412634 313.347468c7.415774-5.195842 15.175538-10.047694 23.678279-13.969575 30.293078-13.967575 62.760091-16.942485 93.292162-11.097662l170.316819-292.097115c-8.799732-10.385684-16.787489-21.582343-22.762307-34.531949-35.654915-77.294649-1.778946-169.172854 75.510703-204.82277 77.285649-35.653915 169.162854-1.782946 204.812769 75.511703 18.877426 40.928755 17.780459 85.757391 1.543953 124.391216l569.270683 519.896185c2.609921-1.429957 4.866852-3.244901 7.607769-4.513863 77.290649-35.648916 169.162854-1.778946 204.812769 75.511703 35.648916 77.289649 1.782946 169.162854-75.511703 204.81777zM804.652933 637.177873l93.443158-43.090689-43.106689-93.453157-93.437158 43.101689 43.095689 93.437158zM222.616639 112.399837l-43.101689-93.432158-93.437158 43.096689 43.101689 93.437158 93.437158-43.106689z m898.390671-17.76446l93.437157-43.096689-43.096689-93.443157-93.442157 43.096689 43.101689 93.443157z m740.127485 621.841084l43.101689 93.444158 93.443157-43.096689-43.106688-93.443158-93.437158 43.096689z"  horiz-adv-x="2083" />

    
    <glyph glyph-name="zuobiao" unicode="&#58965;" d="M512 896C299.903 896 127.956 725.675 127.956 515.627c0-210.09 378.752-644.734 384.042-643.582 8.832 2.005 384 433.492 384 643.582C895.998 725.76 724.051 896 511.998 896z m0-585.172c-97.878 0-177.238 78.592-177.238 175.53 0 96.981 79.36 175.573 177.237 175.573s177.194-78.592 177.194-175.573c0-96.938-79.317-175.53-177.194-175.53z"  horiz-adv-x="1024" />

    
    <glyph glyph-name="xiazai" unicode="&#58890;" d="M495.897 143.203c0.646-0.937 1.371-1.837 2.202-2.67 0.832-0.83 1.727-1.551 2.661-2.195 0.096-0.065 0.184-0.14 0.279-0.204 0.084-0.058 0.174-0.104 0.26-0.158 3.007-1.957 6.588-3.104 10.441-3.104 3.856 0 7.438 1.147 10.441 3.104 0.086 0.054 0.176 0.102 0.262 0.158 0.096 0.064 0.186 0.138 0.279 0.204 0.933 0.644 1.829 1.365 2.661 2.195 0.833 0.833 1.559 1.732 2.204 2.672l304.706 304.711c7.401 7.383 7.401 19.395 0 26.797-7.401 7.421-19.414 7.421-26.815 0l-274.548-274.537v529.53c0 10.606-8.583 19.188-19.188 19.188s-19.19-8.582-19.19-19.188v-529.53l-274.548 274.537c-7.402 7.421-19.415 7.421-26.816 0-7.402-7.4-7.402-19.414 0-26.797l304.707-304.713zM876.333 58.121h-729.181c-10.606 0-19.189-8.582-19.189-19.189 0-10.587 8.583-19.187 19.189-19.187h729.181c10.588 0 19.19 8.6 19.19 19.187 0 10.607-8.602 19.189-19.19 19.189z"  horiz-adv-x="1024" />

    
    <glyph glyph-name="uicon_minimize" unicode="&#58958;" d="M644.741 467.219h182.791c37.93 8.884 45.281 40.759 16.503 68.971l-43.185 40.725 150.518 150.086c13.31 13.242 13.342 34.767 0.034 48.009l-48.11 47.942c-13.242 13.242-34.9 13.209-48.176-0.034l-153.179-152.714-48.508 45.746c-24.487 28.581-50.838 21.26-58.557-16.369l0.268-182.326c-0.968-39.82 19.295-48.972 49.602-50.038zM800.949 190.807l43.185 40.889c28.845 28.346 21.562 60.288-16.335 69.172h-183.022c-30.312-1.098-50.603-10.313-49.572-50.339l-0.268-182.891c7.653-37.729 34.003-45.050 58.557-16.369l48.474 45.879 153.179-153.146c13.276-13.276 34.9-13.276 48.176-0.067l48.143 48.143c13.31 13.31 13.276 34.9-0.034 48.21l-150.485 150.517zM369.657 717.021l-48.311-45.746-152.811 152.778c-13.276 13.242-34.8 13.276-48.043 0.034l-48.013-48.009c-13.242-13.276-13.209-34.8 0.034-48.043l150.12-150.086-43.052-40.725c-28.715-28.245-21.46-60.12 16.335-68.971h182.389c30.244 1.064 50.439 10.213 49.409 50.105l0.298 182.326c-7.653 37.598-33.937 44.953-58.356 16.339zM378.307 301.932h-181.723c-37.796-8.951-45.75-40.893-17.035-69.205l43.052-40.889-150.086-150.418c-13.242-13.31-13.276-34.9-0.034-48.21l48.009-48.142c13.209-13.209 34.8-13.209 48.043 0.067l152.748 153.146 48.311-45.879c24.419-28.648 50.67-21.36 58.389 16.335l-0.298 182.925c1.064 39.988-19.097 49.174-49.375 50.272z"  horiz-adv-x="1024" />

    
    <glyph glyph-name="mzicon-setting" unicode="&#58892;" d="M896 256c70.692 0 128 57.308 128 128 0 70.692-57.308 128-128 128h-22.187c-15.79 44.221-37.765 82.435-65.329 115.869l65.533-62.826c21.978 22.944 35.508 54.133 35.508 88.483 0 70.692-57.308 128-128 128-34.349 0-65.539-13.53-88.529-35.552l-15.587-15.589c-36.561 17.877-79.090 30.228-123.945 34.661l86.535 2.954c0 70.692-57.308 128-128 128-70.692 0-128-57.308-128-128v-22.187c-43.577-15.513-81.236-37.147-114.172-64.304l61.129 64.509c-22.944 21.978-54.133 35.508-88.483 35.508-70.692 0-128-57.308-128-128 0-34.349 13.53-65.539 35.552-88.529l15.589-15.587c-18.453-37.959-31.217-82.101-35.824-128.642l-1.791 91.231c-70.692 0-128-57.308-128-128 0-70.692 57.308-128 128-128h22.187c16.204-45.185 38.687-84.229 66.86-118.408l-67.065 65.365c-21.978-22.944-35.508-54.133-35.508-88.483 0-70.692 57.308-128 128-128 34.349 0 65.539 13.53 88.529 35.552l15.587 15.589c36.561-17.877 79.090-30.228 123.945-34.661l-86.535-2.954c0-70.692 57.308-128 128-128s128 57.308 128 128v22.187c43.577 15.513 81.236 37.147 114.172 64.304l-61.129-64.509c22.944-21.978 54.133-35.508 88.483-35.508 70.692 0 128 57.308 128 128 0 34.349-13.53 65.539-35.552 88.529l-15.589 15.655c17.871 36.482 30.22 78.92 34.659 123.685l2.956-86.343zM828.757 157.696c11.524-11.598 18.647-27.58 18.647-45.227s-7.123-33.629-18.65-45.23c-11.755-11.16-27.687-18.026-45.223-18.026-17.536 0-33.468 6.866-45.255 18.056l-49.26 49.262-21.163-11.81c-36.632-20.848-79.759-34.866-125.714-39.139l34.168 3.982v-69.769c0-35.365-28.669-64.034-64.034-64.034-35.365 0-64.034 28.669-64.034 64.034l-0 70.178-23.279 6.827c-45.003 12.998-84.030 34.227-117.231 62.159l27.801-22.019-49.289-49.289c-11.758-11.163-27.691-18.029-45.227-18.029s-33.468 6.866-45.255 18.056c-11.495 11.571-18.618 27.553-18.618 45.2 0 17.646 7.123 33.629 18.65 45.23l49.217 49.285-11.81 21.163c-20.777 36.565-34.739 79.61-38.982 125.472l3.893-33.995h-69.769c-35.365 0-64.034 28.669-64.034 64.034s28.669 64.034 64.034 64.034h69.632l6.827 23.279c13.094 45.272 34.424 84.537 62.474 117.973l-22.402-28.544-49.22 49.289c-11.524 11.598-18.647 27.58-18.647 45.227 0 17.646 7.123 33.629 18.65 45.23 11.755 11.16 27.687 18.026 45.223 18.026 17.536 0 33.468-6.866 45.255-18.056l49.26-49.193 21.163 11.81c36.355 20.701 79.163 34.607 124.78 38.821l-33.234-3.732v69.769c0 35.365 28.669 64.034 64.034 64.034s64.034-28.669 64.034-64.034l-0-69.973 23.279-6.827c45.215-13.067 84.431-34.366 117.823-62.38l-28.394 22.308 49.289 49.22c11.758 11.163 27.691 18.029 45.227 18.029s33.468-6.866 45.255-18.056c11.495-11.571 18.618-27.553 18.618-45.2 0-17.646-7.123-33.629-18.65-45.23l-49.217-49.285 11.742-21.163c20.789-36.467 34.762-79.409 39.012-125.171l-3.855 33.625h69.769c35.365-0 64.034-28.669 64.034-64.034 0-35.365-28.669-64.034-64.034-64.034l-70.042 0-6.827-23.211c-13.062-45.136-34.363-84.276-62.379-117.581l22.307 28.152zM512 576.034c-106.058 0-192.034-85.977-192.034-192.034s85.977-192.034 192.034-192.034c106.058 0 192.034 85.977 192.034 192.034-0.078 106.026-86.008 191.956-192.027 192.034zM512 256c-70.692 0-128 57.308-128 128 0 70.692 57.308 128 128 128 70.692 0 128-57.308 128-128-0.078-70.661-57.339-127.922-127.993-128z"  horiz-adv-x="1024" />

    
    <glyph glyph-name="dayuhao" unicode="&#58887;" d="M514.153036 151.09090400000014c4.851495 0.4297890000000004 9.586332 2.4989140000000014 13.298887 6.221702000000003L953.0101789999999 582.839139c8.396226999999996 8.406460000000001 8.396226999999996 22.008246-5.329070518200751e-15 30.393217-8.396227000000001 8.40646-21.998013 8.406459999999996-30.394241-5.329070518200751e-15l-410.5289569999999-410.49928100000005-410.5279340000001 410.49928099999994c-8.397251000000004 8.406459999999997-21.999037 8.406459999999996-30.394241-5.329070518200751e-15-8.397250999999999-8.406460000000003-8.397250999999997-21.986757 5.329070518200751e-15-30.393217L496.765017 157.27167400000008C501.52134500000005 152.51329999999996 507.94770700000004 150.45850099999996 514.153036 151.09090400000014z"  horiz-adv-x="1024" />

    
    <glyph glyph-name="dayuhao1" unicode="&#58896;" d="M509.84696399999984 616.9090959999999c-4.851495-0.4297890000000004-9.586332000000002-2.498914000000005-13.298886999999997-6.221702000000007L70.98982100000029 185.16086099999984c-8.396226999999993-8.406460000000003-8.396226999999987-22.008246 1.5987211554602254e-14-30.393217 8.396227000000005-8.406459999999996 21.998013-8.406459999999988 30.394241 1.4210854715202004e-14l410.52895699999976 410.49928100000017 410.52793400000013-410.49928099999977c8.397251000000008-8.406459999999994 21.999037-8.406459999999992 30.394241 1.4210854715202004e-14 8.397250999999995 8.406460000000006 8.397250999999986 21.986757000000008-1.5987211554602254e-14 30.393217L527.2349829999999 610.7283259999999C522.4786549999999 615.4867 516.052293 617.541499 509.84696399999984 616.9090959999999z"  horiz-adv-x="1024" />

    
    <glyph glyph-name="edit" unicode="&#58889;" d="M850.622159 866.875096c-31.331849 33.126756-82.334296 33.126756-113.660501 0L672.525631 798.397707l151.494653-160.582075 64.441672 68.454812c31.676155 33.143689 31.676155 87.019116 0 120.168449l-37.839797 40.436203z m-208.683321-100.514783l-421.684577-447.919568V308.98644h36.411774v-36.417418h36.417418v-36.417418h36.417418v-36.411774h36.411774V147.68188699999996l427.882085 458.090707-151.855892 160.587719zM183.836843 279.48336500000005l-15.663103-16.379936-57.166089-219.238276 223.21755 69.555462 12.378084 13.484379h-17.102414v36.411774h-36.417418v36.417418h-36.417418v36.411774h-36.411774v36.417418H183.836843v6.919987z m-43.704289-338.672958v-68.810407h758.528762v68.810407H140.132554z"  horiz-adv-x="1024" />

    
    <glyph glyph-name="maximize" unicode="&#59129;" d="M1023.744 879.096c-0.006 4.336-1.696 8.196-5.076 11.572C1015.534 893.802 1011.8 895.372 1007.46 895.376L776.556 896c-5.302-0.478-9.392-2.154-12.28-5.044-3.13-3.132-4.688-6.984-4.682-11.56 0.004-4.576 1.574-8.432 4.71-11.568l69.458-69.46L592.436 557.04c-3.128-3.13-4.688-6.976-4.684-11.556 0.008-4.576 1.576-8.434 4.71-11.568l69.458-69.458c3.136-3.136 6.99-4.706 11.566-4.708 4.58-0.008 8.432 1.554 11.56 4.68L926.368 705.76l69.46-69.46c3.136-3.136 6.992-4.702 11.57-4.708 4.576-0.008 8.428 1.556 11.56 4.68 3.366 3.37 5.048 7.226 5.042 11.56l-0.256 231.264z m-661.66-575.56c-3.138 3.136-6.99 4.708-11.566 4.71-4.58 0.008-8.432-1.556-11.56-4.68L97.632 62.24l-69.46 69.46c-3.136 3.134-6.99 4.702-11.568 4.708-4.576 0.008-8.428-1.556-11.558-4.682C1.68 128.358 0 124.5 0.002 120.17l0.26-231.268c0.008-4.336 1.698-8.194 5.076-11.572 3.134-3.134 6.87-4.702 11.208-4.708l230.904-0.622c5.3 0.476 9.392 2.156 12.28 5.044 3.13 3.132 4.69 6.984 4.684 11.56-0.006 4.576-1.574 8.432-4.712 11.57l-69.456 69.456 241.328 241.32c3.126 3.13 4.688 6.98 4.684 11.556-0.008 4.576-1.576 8.434-4.71 11.57l-69.464 69.46z m645.014-431.28c4.336 0.006 8.194 1.696 11.572 5.076 3.134 3.132 4.702 6.868 4.708 11.208L1024 119.444c-0.478 5.3-2.156 9.39-5.044 12.28-3.132 3.126-6.984 4.688-11.56 4.68-4.576-0.004-8.432-1.574-11.57-4.71l-69.458-69.458-241.326 241.33c-3.13 3.128-6.978 4.688-11.556 4.686-4.578-0.008-8.436-1.578-11.568-4.712l-69.46-69.458c-3.134-3.136-4.704-6.99-4.706-11.566-0.01-4.58 1.556-8.432 4.68-11.56L833.76-30.368l-69.46-69.46c-3.134-3.136-4.704-6.99-4.708-11.57-0.01-4.574 1.556-8.428 4.682-11.556 3.368-3.368 7.224-5.05 11.556-5.044l231.266 0.254zM431.54 533.916c3.134 3.136 4.706 6.99 4.708 11.566 0.01 4.58-1.556 8.43-4.68 11.56L190.24 798.368l69.46 69.46c3.134 3.134 4.702 6.99 4.708 11.568 0.008 4.576-1.556 8.428-4.682 11.56C256.358 894.322 252.5 896.004 248.166 896L16.904 895.74C12.566 895.734 8.708 894.044 5.33 890.664 2.196 887.53 0.628 883.796 0.62 879.46L0 648.552c0.476-5.302 2.156-9.392 5.044-12.28 3.13-3.13 6.984-4.688 11.56-4.684 4.576 0.006 8.432 1.576 11.57 4.712l69.456 69.458 241.322-241.328c3.13-3.126 6.98-4.688 11.558-4.684 4.576 0.008 8.434 1.576 11.568 4.71l69.462 69.46z"  horiz-adv-x="1024" />

    
    <glyph glyph-name="zhexiantu" unicode="&#58898;" d="M959.16032-32.22016H64.06144V797.8752h37.0432v-787.16416h858.05056v-42.9312zM580.6592 99.75296L369.68448 267.8272l-211.04128-132.61312-17.65888 37.7344 230.99392 145.152 208.50688-166.10816 334.0544 270.60736 21.22752-35.18464-355.10784-287.66208zM152.11008 294.25152l-28.68224 27.17184 236.8 335.63648 208.768-255.9744 334.52032 391.23968 26.3168-30.21312-361.46176-422.74816-206.1312 252.73344-210.12992-297.84576z"  horiz-adv-x="1024" />

    
    <glyph glyph-name="right" unicode="&#59104;" d="M792.412504 384.172939l-48.762587 48.793286-0.208754-0.206708L280.350083 895.88846l-48.762587-48.762587 463.096197-463.125873L231.587496-79.12996599999997l48.762587-48.75747 463.09108 463.124849 0.208754-0.206708 48.762587 48.798403-0.172939 0.171915L792.412504 384.172939zM792.412504 384.172939"  horiz-adv-x="1024" />

    
    <glyph glyph-name="xiaoxi-" unicode="&#58882;" d="M1012-51.52L717.12 243.36a390.56 390.56 0 1 1-65.76-69.92L944-119.2z m-912 525.28a302.72 302.72 0 1 0 302.4-302.72A303.04 303.04 0 0 0 99.84 473.76z"  horiz-adv-x="1024" />

    
    <glyph glyph-name="duobianxing--" unicode="&#58988;" d="M530.925075-128l-440.903097 254.721279V635.652348l440.903097 254.721278 440.903097-254.721278v-509.442558l-440.903097-254.20979z m-375.432568 292.05994l375.432568-216.871129 375.432567 216.871129V597.802198l-375.432567 216.871129-375.432568-216.871129v-433.742258z"  horiz-adv-x="1024" />

    
    <glyph glyph-name="arrLeft-fill-copy" unicode="&#59024;" d="M300.65393814-51.36657065999998l439.36305304 439.36305302-438.03170133 438.03170133z"  horiz-adv-x="1024" />

    
    <glyph glyph-name="hcm-save-copy" unicode="&#59078;" d="M884.622222-71.11111100000005H139.377778C93.866667-71.11111100000005 56.888889-34.13333299999999 56.888889 8.53333299999997V759.466667C56.888889 802.133333 93.866667 839.111111 139.377778 839.111111H369.777778c17.066667 0 28.444444-11.377778 28.444444-28.444444v-341.333334h227.555556V810.666667c0 17.066667 11.377778 28.444444 28.444444 28.444444h170.666667c8.533333 0 14.222222-2.844444 19.911111-8.533333l113.777778-108.088889c5.688889-5.688889 8.533333-14.222222 8.533333-19.911111v-691.2c0-45.511111-36.977778-82.488889-82.488889-82.488889zM139.377778 782.222222c-14.222222 0-25.6-11.377778-25.6-22.755555v-748.088889c0-14.222222 11.377778-25.6 25.6-25.6h745.244444c14.222222 0 25.6 11.377778 25.6 22.755555V688.355556L813.511111 782.222222H682.666667v-341.333333c0-17.066667-11.377778-28.444444-28.444445-28.444445H369.777778c-17.066667 0-28.444444 11.377778-28.444445 28.444445V782.222222H139.377778zM483.555556 554.666667c-17.066667 0-28.444444 11.377778-28.444445 28.444444V725.333333c0 17.066667 11.377778 28.444444 28.444445 28.444445s28.444444-11.377778 28.444444-28.444445v-142.222222c0-17.066667-11.377778-28.444444-28.444444-28.444444zM654.222222 782.222222H369.777778c-17.066667 0-28.444444 11.377778-28.444445 28.444445s11.377778 28.444444 28.444445 28.444444h284.444444c17.066667 0 28.444444-11.377778 28.444445-28.444444s-11.377778-28.444444-28.444445-28.444445z"  horiz-adv-x="1024" />

    
    <glyph glyph-name="screenshot" unicode="&#58929;" d="M918.8 144.63h-88v470a90.1 90.1 0 0 1-90 90H272.26v86.9a40 40 0 0 1-80 0v-86.93h-88a40 40 0 1 1 0-80h88v-470a90.1 90.1 0 0 1 90-90H750.8v-84.3a40 40 0 0 1 80 0v84.33h88a40 40 0 0 1 0 80z m-636.54 0a10 10 0 0 0-10 10v470H740.8a10 10 0 0 0 10-10v-470zM432.4 520.24a40 40 0 0 1-56.57-56.57l77.78-77.78a40 40 0 0 1 56.57 56.57zM616.25 336.39a40 40 0 1 1-56.57-56.57l32.12-32.12a40 40 0 0 1 56.57 56.57z"  horiz-adv-x="1024" />

    
    <glyph glyph-name="buju" unicode="&#59038;" d="M865.28 814.08h-716.8c-46.08 0-76.8-35.84-76.8-76.8v-716.8c0-40.96 35.84-76.8 76.8-76.8h716.8c40.96 0 76.8 35.84 76.8 76.8v716.8c0 40.96-35.84 76.8-76.8 76.8z m-716.8-51.2h716.8c15.36 0 25.6-10.24 25.6-25.6v-133.12h-768V737.28c0 15.36 10.24 25.6 25.6 25.6z m-25.6-742.4V547.84h215.04v-558.08H148.48c-15.36 5.12-25.6 15.36-25.6 30.72z m742.4-25.6H389.12V547.84h501.76v-532.48c0-10.24-10.24-20.48-25.6-20.48z"  horiz-adv-x="1024" />

    
    <glyph glyph-name="tubiao-bingtu" unicode="&#60309;" d="M896 416c-1.344 0-2.464-0.608-3.744-0.768-1.28 0.16-2.432 0.768-3.744 0.768H544V764c0 0.704-0.352 1.312-0.416 2.016 0.064 0.672 0.416 1.28 0.416 1.984a32 32 0 0 1-32 32C282.624 800 96 613.376 96 384s186.624-416 416-416 416 186.624 416 416a32 32 0 0 1-32 32zM512 32C317.92 32 160 189.92 160 384 160 567.296 300.864 718.144 480 734.368V384a32 32 0 0 1 32-32h350.368C846.144 172.864 695.296 32 512 32zM625.664 717.28a355.36 355.36 0 0 0 216.832-211.84 32 32 0 1 1 60.064 22.048 414.24 414.24 0 0 1-256.224 250.336 31.968 31.968 0 1 1-20.672-60.544z"  horiz-adv-x="1024" />

    
    <glyph glyph-name="zhibiao" unicode="&#58917;" d="M512 384c68.096 0 119.296-56.832 119.296-124.928s-56.832-124.928-119.296-124.928-119.296 56.832-119.296 124.928S443.904 384 512 384m0 51.2c-91.136 0-170.496-79.872-170.496-176.128s73.728-176.128 170.496-176.128 170.496 79.872 170.496 176.128S603.136 435.2 512 435.2M891.392 446.976c-11.776-6.656-16.384-20.48-11.264-32.768 20.992-49.664 29.696-100.352 29.696-155.136 0-53.248-8.192-107.008-28.672-153.088-5.632-13.312 0-28.16 13.312-34.304l2.56-1.024c13.312-6.144 29.184 0.512 34.816 14.336 22.016 55.808 34.816 115.712 34.816 179.712 0 58.368-12.288 116.736-33.792 172.032-5.632 14.848-23.04 20.992-36.864 13.312l-4.608-3.072zM121.856 84.992c13.824 4.608 20.992 19.456 16.384 33.28-16.384 44.544-24.064 92.672-24.064 140.288 0 227.328 182.272 409.6 398.336 409.6 59.392 0 114.688-12.8 165.888-35.328 12.288-5.632 27.136 0 33.28 12.288 6.656 12.8 1.024 28.672-12.288 34.816-57.344 27.136-121.856 45.056-186.88 45.056-250.368 0-455.168-204.8-455.168-460.8 0-59.392 8.704-114.688 29.696-165.376 5.12-12.8 19.456-18.944 32.256-14.848l2.56 1.024zM847.36 539.136l-200.704-205.312-40.448 39.936 200.704 204.8c10.24 10.24 26.624 10.24 36.864 0.512l3.584-3.584c10.24-10.24 10.24-26.624 0-36.352z"  horiz-adv-x="1024" />

    
    <glyph glyph-name="gengduo" unicode="&#59304;" d="M476.16 684.16h128v-128h-128zM476.16 448h128v-128h-128zM476.16 211.84h128v-128h-128z"  horiz-adv-x="1024" />

    
    <glyph glyph-name="arr-left" unicode="&#58885;" d="M377.47806845 106.88884163l279.65492248 279.65492248-278.8075161 278.8075161z"  horiz-adv-x="1024" />

    
    <glyph glyph-name="satellite_fill" unicode="&#59230;" d="M459.2 217.6l-33.6 33.6c-6.4 6.4-6.4 17.6-1.6 24l1.6 3.2c3.2 4.8 8 6.4 14.4 6.4 4.8 0 9.6-1.6 12.8-4.8l32-32c6.4-6.4 16-11.2 25.6-11.2 9.6 0 19.2 3.2 25.6 11.2l107.2 107.2c14.4 14.4 14.4 36.8 0 51.2l-20.8 20.8c-14.4 14.4-14.4 36.8 0 51.2v4.8l46.4-46.4c6.4-6.4 16-11.2 25.6-11.2s19.2 3.2 25.6 11.2l132.8 132.8c14.4 14.4 14.4 36.8 0 51.2l-137.6 137.6c-4.8 4.8-12.8 8-20.8 8s-16-3.2-20.8-8l-137.6-142.4c-16-9.6-16-30.4 0-41.6l38.4-38.4c6.4-6.4 6.4-19.2 0-25.6-3.2-3.2-8-4.8-12.8-4.8-4.8 0-9.6 1.6-12.8 4.8L384 670.4c-4.8 4.8-12.8 8-20.8 8s-16-3.2-20.8-8l-112-112c-14.4-14.4-14.4-36.8 0-51.2l145.6-145.6c12.8-12.8 14.4-33.6 1.6-48l-4.8-4.8v-4.8l-46.4 46.4c-6.4 6.4-16 11.2-25.6 11.2-9.6 0-19.2-3.2-25.6-11.2L144 217.6c-14.4-14.4-14.4-36.8 0-51.2l132.8-132.8c6.4-6.4 16-11.2 25.6-11.2 9.6 0 19.2 3.2 25.6 11.2l132.8 132.8c12.8 12.8 12.8 36.8-1.6 51.2z m-112 225.6c-3.2-3.2-9.6-6.4-14.4-6.4s-9.6 1.6-14.4 6.4c-8 8-8 20.8 0 28.8l102.4 102.4c8 8 20.8 8 28.8 0s8-20.8 0-28.8l-102.4-102.4zM724.8 236.8c-4.8-16-16-30.4-25.6-41.6-9.6-9.6-25.6-20.8-41.6-30.4-14.4-6.4-28.8-9.6-44.8-9.6-19.2 0-38.4 4.8-57.6 9.6-3.2 1.6-4.8 1.6-8 1.6-8 0-14.4-4.8-17.6-12.8-4.8-9.6 0-20.8 9.6-25.6 4.8 0 9.6-4.8 16-4.8 16-4.8 33.6-6.4 49.6-6.4 20.8 0 41.6 3.2 62.4 12.8 20.8 9.6 41.6 20.8 56 35.2 16 16 30.4 35.2 35.2 56 9.6 20.8 16 41.6 16 60.8v16c0 9.6-4.8 20.8-4.8 30.4 0 4.8-4.8 9.6-4.8 16-3.2 8-9.6 12.8-17.6 12.8-3.2 0-4.8 0-8-1.6-3.2 1.6-4.8 1.6-8 1.6-9.6 0-12.8-8-8-16 4.8-9.6 9.6-25.6 9.6-35.2v-16c3.2-16-3.2-36.8-8-52.8zM868.8 411.2L848 446.4c-3.2 6.4-8 8-12.8 8-3.2 0-8-1.6-12.8-3.2-9.6-4.8-9.6-16-4.8-25.6 25.6-41.6 41.6-86.4 41.6-137.6 0-35.2-4.8-65.6-20.8-97.6-25.6-60.8-76.8-112-137.6-137.6-30.4-9.6-60.8-20.8-97.6-20.8s-72 9.6-107.2 25.6l-33.6 17.6c-3.2 1.6-4.8 1.6-8 1.6-6.4 0-11.2-3.2-14.4-8-4.8-9.6-4.8-20.8 4.8-25.6 16-4.8 25.6-9.6 41.6-16 41.6-16 81.6-25.6 123.2-25.6 41.6 0 76.8 9.6 112 20.8 72 30.4 128 86.4 158.4 158.4 16 35.2 20.8 72 20.8 112-8 36.8-17.6 81.6-32 118.4z"  horiz-adv-x="1024" />

    
    <glyph glyph-name="close" unicode="&#58880;" d="M521.693867 446.702933L111.4112 856.9856a51.2 51.2 0 1 1-72.430933-72.362667l410.282666-410.3168-410.282666-410.3168a51.2 51.2 0 1 1 72.3968-72.3968l410.3168 410.282667 410.3168-410.282667a51.2 51.2 0 1 1 72.3968 72.362667l-410.282667 410.350933 410.282667 410.282667a51.2 51.2 0 1 1-72.3968 72.3968l-410.282667-410.282667z"  horiz-adv-x="1024" />

    
    <glyph glyph-name="duihao" unicode="&#58893;" d="M380.416 73.856c-10.432 0-20.864 3.968-28.8 11.968L75.968 361.408c-15.936 15.936-15.936 41.664 0 57.6 15.872 15.872 41.664 15.872 57.536 0L380.416 172.15999999999997l510.08 510.016c15.872 15.936 41.664 15.936 57.536 0 15.936-15.936 15.936-41.664 0-57.6L409.216 85.75999999999999c-7.936-7.936-18.368-11.904-28.8-11.904z"  horiz-adv-x="1024" />

    
    <glyph glyph-name="huadian-meigui-" unicode="&#58904;" d="M823.6 657.2c0.1 1.9 0.4 3.7 0.4 5.6 0 69-76.7 107.1-171.2 107.1-22 0-25.4-20.6-44.4-26.4-0.3-0.1-0.7-0.1-0.9 0.1-28.5 17.9-58 40.1-95.4 40.1-38.6 0-73.6-14.9-106.9-40.4-0.3-0.2-0.7-0.3-1-0.2-19.2 6-17.8 26.7-36.7 26.7-94.6 0-171.2-38.1-171.2-107.1 0-4.9 0.5-9.8 1.3-14.6v-0.4c-1.7-6.6-2.7-13.2-2.7-20v-282.5c0-174.3 141.3-315.5 315.5-315.5h3.6c174.3 0 315.5 141.3 315.5 315.5V627.8c-0.2 10-2.2 19.9-5.9 29.4zM513.8 14.2h-3.6c-182.5 0-331 148.5-331 331V627.8c0 6.8 0.8 13.8 2.5 20.9-0.7 5-1 9.6-1 14 0 73.4 75.1 122.6 186.8 122.6 17.9 0 26.1-11.1 31.6-18.5 1.7-2.4 3.1-4.2 4.5-5.6 35.7 25.4 71.3 37.9 108.6 37.9 37.5 0 67.4-19.2 93.7-36.1 1.1-0.7 2.2-1.4 3.2-2.1 2.2 1.6 4.4 3.8 7.2 6.6 7.5 7.5 17.8 17.9 36.6 17.9 111.7 0 186.8-49.3 186.8-122.6 0-1.2-0.1-2.3-0.2-3.5 3.6-10.4 5.5-21 5.5-31.5v-282.5c-0.2-182.6-148.7-331.1-331.2-331.1zM367.4 754.4c-77.5 0-155.7-28.3-155.7-91.6 0-3.6 0.4-7.6 1.1-12.1 0.3-2.1 0.2-4.6-0.3-6.6-1.5-5.8-2.2-11.1-2.2-16.3v-282.5c0-165.4 134.6-300 300-300h3.6c165.4 0 300 134.6 300 300V627.8c0 7.8-1.6 15.8-4.7 23.8-0.8 2.1-1.2 4.3-1 6.6l0.2 2.5c0.1 0.7 0.2 1.4 0.2 2.1 0 63.3-78.2 91.6-155.7 91.6-5.6 0-8.1-2.2-14.6-8.7-5.9-6-13.3-13.4-25.3-17-4.3-1.3-9.9-0.6-13.7 1.8-3.4 2.2-6.8 4.3-10.3 6.5-23.8 15.3-48.5 31.2-76.9 31.2-32.9 0-64.8-12.2-97.5-37.2-4-3.1-10.4-4.2-15.2-2.6-13.7 4.3-20.7 13.8-25.4 20.1-4.4 5.9-4.7 5.9-6.6 5.9zM512 552.5m-125.5 0a125.5 125.5 0 1 1 251 0 125.5 125.5 0 1 1-251 0ZM512 411.4c-77.8 0-141.1 63.3-141.1 141.1S434.2 693.6 512 693.6s141.1-63.3 141.1-141.1S589.8 411.4 512 411.4z m0 251.1c-60.7 0-110-49.4-110-110s49.4-110 110-110 110 49.4 110 110-49.3 110-110 110zM447 543.6S413.2 662.8 311.3 688c-90.2 22.3-116.6-65.7-116.6-65.7M447 528.1c-6.8 0-13 4.5-14.9 11.3-0.3 1.1-32.8 110.9-124.5 133.6-75 18.6-97.1-52.1-98.1-55.1-2.5-8.2-11.1-12.9-19.3-10.4s-12.9 11.1-10.4 19.3c10.6 35.4 52.6 96.8 135.2 76.3C424.4 676 460.4 553 461.9 547.8c2.3-8.3-2.4-16.8-10.7-19.2-1.4-0.3-2.8-0.5-4.2-0.5zM577.5 543.6S611.3 662.8 713.2 688c90.2 22.3 116.6-65.7 116.6-65.7M577.5 528.1c-1.4 0-2.8 0.2-4.2 0.6-8.2 2.3-13 10.9-10.7 19.2C564 553 600.1 676 709.4 703c82.7 20.5 124.6-41 135.2-76.3 2.5-8.2-2.2-16.9-10.4-19.3-8.2-2.5-16.9 2.2-19.3 10.4-2.3 7.5-24.8 73.2-98.1 55.1-92-22.8-124.1-132.4-124.5-133.6-1.8-6.8-8-11.2-14.8-11.2zM320.8 444.5s4.1 110-126.2 123.7M320.9 429h-0.6c-8.5 0.3-15.2 7.5-14.9 16 0.1 4 1.3 95.8-112.3 107.8-8.5 0.9-14.7 8.5-13.8 17.1 0.9 8.5 8.7 14.7 17.1 13.8 143-15 140.1-138.5 140-139.7-0.4-8.4-7.2-15-15.5-15zM265.5 385.2S287.3 599 551.1 599c196.4 0 278.2-184.5 278.2-184.5M265.5 369.7c-0.5 0-1.1 0-1.6 0.1-8.5 0.9-14.7 8.5-13.9 17 0.2 2.3 26.4 227.8 301.1 227.8 204.1 0 291.5-191.8 292.4-193.7 3.5-7.8-0.1-17-7.9-20.5-7.8-3.5-17 0-20.5 7.9-3.2 7.2-80.4 175.3-264 175.3-247 0-269.3-191.7-270.2-199.9-0.8-8-7.5-14-15.4-14zM404.7 743s-44.6-14.2-58.5-60.3M346.1 667.2c-1.5 0-3 0.2-4.5 0.7-8.2 2.5-12.8 11.1-10.4 19.4 16.1 53.3 66.5 69.9 68.7 70.6 8.1 2.6 16.9-1.9 19.5-10.1 2.6-8.1-1.9-16.8-10-19.5-1.7-0.6-37.2-12.8-48.4-50-2-6.8-8.2-11.1-14.9-11.1zM607.8 743.3s49-14.6 62.9-60.6M670.7 667.2c-6.7 0-12.8 4.3-14.8 11-11.3 37.2-52.2 50.1-52.6 50.3-8.2 2.5-12.8 11.2-10.3 19.3 2.5 8.2 11.1 12.8 19.2 10.4 2.3-0.7 57.2-17.6 73.4-71 2.5-8.2-2.2-16.9-10.4-19.4-1.5-0.4-3-0.6-4.5-0.6zM813.5 2.6c-110.5-52.7-257.9 26-257.9 26s31.6 164.1 142.1 216.8 257.9-26 257.9-26-31.7-164.1-142.1-216.8zM726-31.2c-90 0-173.1 43.6-177.7 46.1-6 3.2-9.2 9.9-7.9 16.6 1.4 7 34.4 172.5 150.6 227.9 116.2 55.4 265.6-23 271.9-26.3 6-3.2 9.2-9.9 7.9-16.6-1.4-7-34.4-172.5-150.6-227.9-30.2-14.4-62.6-19.8-94.2-19.8z m-152.5 68.3c34.7-16 147.7-61.4 233.3-20.6 85.8 41 121.5 157.2 130.8 194.3-34.7 16-147.7 61.4-233.3 20.6-85.6-40.8-121.4-157.2-130.8-194.3z m240-34.5zM555.6 13.1c-5.8 0-11.4 3.3-14 8.8-3.7 7.7-0.4 17 7.3 20.7l303.4 144.7c7.8 3.7 17 0.4 20.7-7.3s0.4-17-7.3-20.7L562.2 14.6c-2.1-1-4.4-1.5-6.6-1.5zM792.5 31c-2.4 0-4.9 0.6-7.2 1.8l-94.8 49.9c-7.6 4-10.5 13.4-6.5 21s13.4 10.5 21 6.5l94.8-49.9c7.6-4 10.5-13.4 6.5-21-2.8-5.3-8.2-8.3-13.8-8.3zM637.6 71.2c-1 0-2 0.1-3 0.3-8.4 1.7-13.9 9.8-12.2 18.2l26.1 131.2c1.7 8.4 9.8 13.8 18.2 12.2 8.4-1.7 13.9-9.8 12.2-18.2l-26.1-131.2c-1.5-7.4-8-12.5-15.2-12.5zM210.5 2.6c110.5-52.7 257.9 26 257.9 26s-31.6 164.1-142.1 216.8-257.9-26-257.9-26 31.7-164.1 142.1-216.8zM298-31.2c-31.6 0-64 5.4-94.2 19.8C87.6 44 54.6 209.4 53.2 216.5c-1.3 6.7 1.9 13.4 7.9 16.6 6.3 3.4 155.7 81.8 271.9 26.3C449.2 204 482.3 38.5 483.7 31.5c1.3-6.7-1.9-13.4-7.9-16.6-4.7-2.5-87.8-46.1-177.8-46.1zM86.4 210.9c9.4-37.1 45.2-153.4 130.8-194.3 85.7-40.9 198.6 4.5 233.3 20.6-9.4 37.1-45.2 153.4-130.8 194.3-85.9 40.9-198.6-4.6-233.3-20.6zM468.4 13.1c-2.2 0-4.5 0.5-6.7 1.5L158.4 159.3c-7.7 3.7-11 13-7.3 20.7s13 11 20.7 7.3l303.4-144.7c7.7-3.7 11-13 7.3-20.7-2.7-5.6-8.3-8.8-14.1-8.8zM231.5 31c-5.6 0-11 3-13.8 8.3-4 7.6-1.1 17 6.5 21l94.8 49.9c7.6 4 17 1.1 21-6.5s1.1-17-6.5-21l-94.8-49.9c-2.3-1.2-4.8-1.8-7.2-1.8zM396.9 55.9c-7.3 0-13.7 5.1-15.2 12.5l-29.1 146.4c-1.7 8.4 3.8 16.6 12.2 18.2 8.4 1.6 16.6-3.8 18.2-12.2l29.1-146.4c1.7-8.4-3.8-16.6-12.2-18.2-1-0.2-2-0.3-3-0.3zM431.7 565.5c-5.7 0-11.2 3.1-13.9 8.6-18.6 37.2-52.9 84.6-110.2 98.8-75 18.6-97.1-52.1-98.1-55.1-2.5-8.2-11.1-12.9-19.3-10.4s-12.9 11.1-10.4 19.3c10.6 35.4 52.5 96.8 135.2 76.3 68.9-17.1 109-72 130.5-115 3.8-7.7 0.7-17-6.9-20.8-2.2-1.1-4.5-1.7-6.9-1.7zM600.3 579.5c-2.6 0-5.3 0.7-7.7 2.1-7.4 4.3-10 13.8-5.7 21.2 21.3 37.2 59.9 84.7 122.6 100.3 83 20.6 123-40.8 132.6-76.2 2.2-8.3-2.7-16.8-10.9-19s-16.8 2.6-19 10.9c-2.1 7.4-22.4 72.2-95.2 54.1-52-12.9-84.8-53.7-103.1-85.6-3-5-8.3-7.8-13.6-7.8zM309.3 480.3c-5.9 0-11.5 3.4-14.1 9-16.9 36.8-51.3 58.2-102.1 63.5-8.5 0.9-14.7 8.5-13.8 17.1 0.9 8.5 8.7 14.7 17.1 13.8 77.9-8.2 112.1-48.8 127.1-81.4 3.6-7.8 0.2-17-7.6-20.6-2.2-0.9-4.4-1.4-6.6-1.4zM265.5 369.7c-0.5 0-1.1 0-1.6 0.1-8.5 0.9-14.7 8.5-13.9 17 0.2 2.3 26.4 227.8 301.1 227.8 204.1 0 291.5-191.8 292.4-193.7 3.5-7.8-0.1-17-7.9-20.5-7.8-3.5-17 0-20.5 7.9-3.2 7.2-80.4 175.3-264 175.3-247 0-269.3-191.7-270.2-199.9-0.8-8-7.5-14-15.4-14zM346.1 667.2c-1.5 0-3 0.2-4.5 0.7-8.2 2.5-12.8 11.1-10.4 19.4 16.1 53.3 66.5 69.9 68.7 70.6 8.1 2.6 16.9-1.9 19.5-10.1 2.6-8.1-1.9-16.8-10-19.5-1.7-0.6-37.2-12.8-48.4-50-2-6.8-8.2-11.1-14.9-11.1zM670.7 667.2c-6.7 0-12.8 4.3-14.8 11-11.3 37.2-52.2 50.1-52.6 50.3-8.2 2.5-12.8 11.2-10.3 19.3 2.5 8.2 11.1 12.8 19.2 10.4 2.3-0.7 57.2-17.6 73.4-71 2.5-8.2-2.2-16.9-10.4-19.4-1.5-0.4-3-0.6-4.5-0.6zM735.3 630.9m-20.3 0a20.3 20.3 0 1 1 40.6 0 20.3 20.3 0 1 1-40.6 0Z"  horiz-adv-x="1024" />

    
    <glyph glyph-name="xianlu1" unicode="&#58888;" d="M715.264 715.264h128c14.848 0 30.208 12.8 30.208 30.208 0 14.848-12.8 30.208-30.208 30.208h-128c-14.848 0-30.208-12.8-30.208-30.208s12.8-30.208 30.208-30.208z m389.12 180.736c-82.944 0-150.528-67.584-150.528-153.088 0-82.944 67.584-153.088 150.528-153.088s150.528 67.584 150.528 153.088S1187.328 896 1104.384 896z m0-245.76c-50.176 0-92.672 42.496-92.672 92.672s39.936 92.672 92.672 92.672c50.176 0 92.672-42.496 92.672-92.672S1154.56 650.24 1104.384 650.24z m-376.32-241.152h-188.416c-7.68 0-160.768 22.528-160.768 163.328 0 135.68 140.8 140.8 155.648 140.8h47.616c14.848 0 27.648 14.848 27.648 30.208s-12.8 27.648-27.648 30.208h-47.616c-72.704 0-213.504-42.496-213.504-200.704 0-155.648 138.24-213.504 213.504-223.232h188.416c7.68 0 160.768-22.528 160.768-163.328 0-135.68-140.8-140.8-155.648-140.8H298.496c-10.24 75.264-72.704 130.56-147.968 130.56-82.944-0.512-150.528-68.096-150.528-153.6C0-60.416 67.584-128 150.528-128c70.144 0 130.56 50.176 145.408 115.2h431.616c75.264 0 213.504 42.496 213.504 200.704 0 156.16-137.728 213.504-212.992 221.184zM150.528-70.144c-50.176 0-92.672 42.496-92.672 92.672 0 52.736 42.496 95.232 92.672 95.232s92.672-42.496 92.672-92.672c-2.048-52.736-42.496-95.232-92.672-95.232z"  horiz-adv-x="1254" />

    
    <glyph glyph-name="arrRight-fill" unicode="&#58884;" d="M234.88884163 518.52193155l279.65492248-279.65492248 278.8075161 278.8075161z"  horiz-adv-x="1024" />

    
    <glyph glyph-name="yanjing_xianshi_o" unicode="&#60364;" d="M512 597.333333c-162.133333 0-285.866667-68.266667-375.466667-213.333333 89.6-145.066667 213.333333-213.333333 375.466667-213.333333s285.866667 68.266667 375.466667 213.333333c-89.6 145.066667-213.333333 213.333333-375.466667 213.333333z m0-469.333333c-183.466667 0-328.533333 85.333333-426.666667 256 98.133333 170.666667 243.2 256 426.666667 256s328.533333-85.333333 426.666667-256c-98.133333-170.666667-243.2-256-426.666667-256z m0 170.666667c46.933333 0 85.333333 38.4 85.333333 85.333333s-38.4 85.333333-85.333333 85.333333-85.333333-38.4-85.333333-85.333333 38.4-85.333333 85.333333-85.333333z m0-42.666667c-72.533333 0-128 55.466667-128 128s55.466667 128 128 128 128-55.466667 128-128-55.466667-128-128-128z"  horiz-adv-x="1024" />

    
    <glyph glyph-name="yanjing_yincang_o" unicode="&#60365;" d="M332.8 166.4l34.133333 34.133333c42.666667-12.8 93.866667-21.333333 145.066667-21.333333 162.133333 0 285.866667 68.266667 375.466667 213.333333-46.933333 72.533333-102.4 128-166.4 162.133334l29.866666 29.866666c72.533333-42.666667 132.266667-106.666667 183.466667-192-98.133333-170.666667-243.2-256-426.666667-256-59.733333-4.266667-119.466667 8.533333-174.933333 29.866667z m-115.2 64c-51.2 38.4-93.866667 93.866667-132.266667 157.866667 98.133333 170.666667 243.2 256 426.666667 256 38.4 0 76.8-4.266667 110.933333-12.8l-34.133333-34.133334c-25.6 4.266667-46.933333 4.266667-76.8 4.266667-162.133333 0-285.866667-68.266667-375.466667-213.333333 34.133333-51.2 72.533333-93.866667 115.2-128l-34.133333-29.866667z m230.4 46.933333l29.866667 29.866667c8.533333-4.266667 21.333333-4.266667 29.866666-4.266667 46.933333 0 85.333333 38.4 85.333334 85.333334 0 12.8 0 21.333333-4.266667 29.866666l29.866667 29.866667c12.8-17.066667 17.066667-38.4 17.066666-64 0-72.533333-55.466667-128-128-128-17.066667 4.266667-38.4 12.8-59.733333 21.333333zM384 396.8c4.266667 68.266667 55.466667 119.466667 123.733333 123.733333 0-4.266667-123.733333-123.733333-123.733333-123.733333zM733.866667 682.666667l29.866666-29.866667-512-512-34.133333 29.866667L733.866667 682.666667z"  horiz-adv-x="1024" />

    
    <glyph glyph-name="arrLeft-fill" unicode="&#58901;" d="M789.11115837 249.47806845000002l-279.65492248 279.65492248-278.8075161-278.8075161z"  horiz-adv-x="1024" />

    
    <glyph glyph-name="add1" unicode="&#59188;" d="M512-128C229.230592-128 0 101.230592 0 384S229.230592 896 512 896s512-229.230592 512-512-229.230592-512-512-512z m-42.667008 554.667008H256c-23.564288 0-42.667008-19.10272-42.667008-42.667008s19.10272-42.667008 42.667008-42.667008h213.332992V128c0-23.564288 19.10272-42.667008 42.667008-42.667008s42.667008 19.10272 42.667008 42.667008V341.332992H768c23.564288 0 42.667008 19.10272 42.667008 42.667008S791.564288 426.667008 768 426.667008H554.667008V640c0 23.564288-19.10272 42.667008-42.667008 42.667008S469.332992 663.564288 469.332992 640v-213.332992z"  horiz-adv-x="1028" />

    
    <glyph glyph-name="folder" unicode="&#59689;" d="M915.2 627.2H512L396.8 742.4H51.2v-633.6c0-31.7952 25.8048-57.6 57.6-57.6h806.4c31.7952 0 57.6 25.8048 57.6 57.6v460.8c0 31.7952-25.8048 57.6-57.6 57.6zM108.8 684.8h264.3968L430.7968 627.2H108.8V684.8z m806.4-576H108.8v460.8h806.4v-460.8z"  horiz-adv-x="1024" />

    
    <glyph glyph-name="dingdian" unicode="&#58975;" d="M512.1 797.8c-171.9 0-311.3-141.8-311.3-316.7 0-36.3 6.1-72.4 18.1-106.7 27.5-78.3 118.6-210.6 273.2-397.2 1-1.2 2.2-2.4 3.4-3.4 11-9.1 27.4-7.6 36.5 3.4 154.4 186.3 245.4 318.5 273 396.5 11.9 33.5 18.4 69.7 18.4 107.4C823.4 656 684 797.8 512.1 797.8z m231.3-422.3c-22.1-62.4-91.9-163.2-215.3-312.2-7.3-8.8-20.4-10.1-29.2-2.7-1 0.8-1.9 1.7-2.7 2.7-123.8 149.3-194.6 250.2-216.6 312.8-9.6 27.4-16.5 56.3-16.5 85.3 0 139.9 111.5 270.3 249 270.3s249-130.4 249-270.3c0-30.1-8.2-59-17.7-85.9zM512.1 375.5c57.3 0 103.8 47.3 103.8 105.6s-46.4 105.5-103.8 105.5-103.8-47.2-103.8-105.5 46.5-105.6 103.8-105.6z"  horiz-adv-x="1024" />

    
    <glyph glyph-name="slider-left" unicode="&#59080;" d="M231.587496 383.82706099999996l48.762587-48.793286 0.208754 0.206708L743.649917-127.88846000000001l48.762587 48.762587-463.096197 463.125873L792.412504 847.129966l-48.762587 48.75747-463.09108-463.124849-0.208754 0.206708-48.762587-48.798403 0.172939-0.171915L231.587496 383.82706099999996zM231.587496 383.82706099999996"  horiz-adv-x="1024" />

    
    <glyph glyph-name="icon_dingwei_m" unicode="&#58903;" d="M512 469.333333m-128 0a128 128 0 1 1 256 0 128 128 0 1 1-256 0ZM877.226667 614.826667L631.04 810.666667a190.293333 190.293333 0 0 1-238.08 0L146.773333 614.826667a163.413333 163.413333 0 0 1-29.866666-224.426667l318.293333-435.2a95.573333 95.573333 0 0 1 153.6 0l318.293333 435.2a163.413333 163.413333 0 0 1-29.866666 224.426667zM512 298.666667a170.666667 170.666667 0 1 0 170.666667 170.666666 170.666667 170.666667 0 0 0-170.666667-170.666666z"  horiz-adv-x="1024" />

    
    <glyph glyph-name="icon_dingwei_mian" unicode="&#58895;" d="M674.56 136.96a42.666667 42.666667 0 0 1-42.666667-18.773333c-17.066667-26.026667-33.28-50.346667-47.786666-71.68a85.333333 85.333333 0 0 0-140.8 0c-14.506667 21.333333-30.72 45.653333-47.786667 71.68a42.666667 42.666667 0 0 1-42.666667 18.773333C247.466667 114.346667 192 77.226667 192 42.666667c0-58.88 143.36-106.666667 320-106.666667s320 47.786667 320 106.666667c0 34.56-55.466667 71.68-157.44 94.293333zM512 853.333333a298.666667 298.666667 0 0 1-298.666667-298.666666c0-117.76 152.746667-361.386667 239.786667-490.666667a70.4 70.4 0 0 1 117.76 0c85.333333 128 239.786667 372.906667 239.786667 490.666667a298.666667 298.666667 0 0 1-298.666667 298.666666z m0-426.666666a128 128 0 1 0 128 128 128 128 0 0 0-128-128z"  horiz-adv-x="1024" />

    
    <glyph glyph-name="yk_fangkuai_fill" unicode="&#58897;" d="M65.95584 829.93152v-891.91936h892.032V829.93152H65.95584z"  horiz-adv-x="1024" />

    


  </font>
</defs>
</svg>
